<?xml version="1.0" standalone="no"?>
<!DOCTYPE svg PUBLIC "-//W3C//DTD SVG 20010904//EN"
 "http://www.w3.org/TR/2001/REC-SVG-20010904/DTD/svg10.dtd">
<svg version="1.0" xmlns="http://www.w3.org/2000/svg"
 width="300.000000pt" height="200.000000pt" viewBox="0 0 200.000000 59.000000"
 preserveAspectRatio="xMidYMid meet">
<metadata>
Created by potrace 1.10, written by Peter Selinger 2001-2011
</metadata>
<g transform="translate(0.000000,59.000000) scale(0.100000,-0.100000)"
fill="#fff" stroke="none">
<path d="M1645 503 c-50 -19 -188 -21 -238 -4 -47 16 -58 9 -21 -15 44 -29
150 -31 235 -4 38 13 72 27 75 31 7 12 -4 10 -51 -8z"/>
<path d="M1642 451 c-64 -51 -116 -115 -143 -176 -25 -56 -39 -175 -20 -175 6
0 11 10 11 23 0 75 69 212 152 302 33 36 58 65 55 65 -3 0 -27 -18 -55 -39z"/>
<path d="M448 392 c-25 -3 -30 -11 -53 -86 -30 -97 -30 -109 -8 -104 12 2 23
26 37 83 l21 80 9 -82 c6 -55 13 -83 21 -83 15 0 50 44 90 113 15 26 29 46 32
43 3 -2 -7 -36 -21 -76 -31 -85 -30 -80 -8 -80 14 0 24 19 45 89 15 50 27 94
27 99 0 5 -14 6 -31 4 -26 -4 -39 -16 -73 -71 l-41 -65 -7 59 c-10 82 -10 80
-40 77z"/>
<path d="M655 312 c-14 -45 -28 -89 -32 -98 -5 -13 5 -15 63 -12 58 3 69 6 72
22 4 17 0 18 -43 13 -45 -7 -47 -6 -41 16 3 12 6 25 6 29 0 4 21 8 47 10 29 2
48 8 51 17 4 11 -4 13 -42 8 -46 -7 -51 -3 -40 27 4 12 20 16 55 16 44 0 54 6
47 27 -2 4 -29 7 -61 7 l-57 1 -25 -83z"/>
<path d="M1024 389 c-3 -6 -2 -15 4 -21 13 -13 32 -2 32 18 0 16 -26 19 -36 3z"/>
<path d="M1130 388 c-32 -17 -63 -81 -64 -132 -1 -35 3 -41 26 -50 17 -6 41
-6 65 0 31 7 42 17 60 54 26 54 36 101 25 117 -12 19 -83 26 -112 11z m75 -60
c-13 -59 -24 -78 -52 -89 -42 -16 -57 -5 -50 37 10 58 32 84 73 84 35 0 35 -1
29 -32z"/>
<path d="M1319 392 c-24 -3 -30 -12 -53 -87 -31 -98 -31 -108 -9 -103 12 2 23
27 38 83 23 86 24 85 45 -23 13 -62 14 -63 43 -60 28 3 31 8 58 97 16 52 27
96 25 99 -20 19 -66 -73 -66 -131 0 -9 -4 -18 -9 -21 -5 -4 -15 27 -22 66 -6
40 -15 75 -18 78 -3 3 -18 4 -32 2z"/>
<path d="M807 303 c-15 -48 -27 -91 -27 -95 0 -13 103 -9 129 5 36 18 63 70
64 124 l2 48 -71 3 -71 3 -26 -88z m132 35 c0 -13 -5 -39 -12 -58 -11 -31 -17
-36 -55 -41 -23 -3 -44 -4 -46 -1 -2 2 2 25 11 50 8 26 16 53 19 60 2 7 20 12
44 12 35 0 40 -3 39 -22z"/>
<path d="M996 285 c-9 -30 -19 -61 -22 -70 -4 -10 0 -15 13 -15 16 0 24 14 40
70 20 67 20 70 3 70 -14 0 -23 -14 -34 -55z"/>

</g>
</svg>
